<?xml version="1.0" standalone="no"?>
<!DOCTYPE svg PUBLIC "-//W3C//DTD SVG 1.1//EN" "http://www.w3.org/Graphics/SVG/1.1/DTD/svg11.dtd" >
<svg xmlns="http://www.w3.org/2000/svg">
<metadata>Generated by IcoMoon</metadata>
<defs>
<font id="magicare" horiz-adv-x="1024">
<font-face units-per-em="1024" ascent="960" descent="-64" />
<missing-glyph horiz-adv-x="1024" />
<glyph unicode="&#x20;" horiz-adv-x="512" d="" />
<glyph unicode="&#xe900;" glyph-name="header_exit_ic2" d="M512-64c-255.737 0.136-462.999 207.483-462.999 463.238 0 145.716 67.28 275.719 172.471 360.637l85.728-120.338c-68.796-58.51-112.152-145.142-112.152-241.9 0-175.048 141.904-316.952 316.952-316.952s316.952 141.904 316.952 316.952c0 96.758-43.357 183.39-111.702 241.527l84.396 121.4c106.073-85.607 173.353-215.609 173.353-361.326 0-255.755-207.262-463.102-462.986-463.238zM512 521.143c-40.396 0-73.143 32.747-73.143 73.143v292.571c0 40.396 32.747 73.143 73.143 73.143s73.143-32.747 73.143-73.143v-292.571c0-40.396-32.747-73.143-73.143-73.143z" />
<glyph unicode="&#xe901;" glyph-name="header_setting_ic2" d="M1024 521.143v-146.286l-109.714-24.381c-11.194-44.566-28.106-83.745-50.266-119.316l61.969-93.53-103.863-103.424-95.086 60.66c-33.818-20.852-72.977-37.593-114.605-48.137l-27.293-110.729h-146.286l-24.381 110.104c-44.692 10.849-84.046 27.499-119.8 49.446l-92.802-61.295-103.863 103.424 60.465 94.696c-20.831 33.962-37.43 73.315-47.685 115.159l-110.791 27.323v146.286l109.714 24.381c11.194 44.566 28.106 83.745 50.266 119.316l-61.969 93.53 103.863 103.424 95.086-60.66c33.818 20.852 72.977 37.593 114.605 48.137l27.293 110.729h146.286l24.381-110.104c44.692-10.849 84.046-27.499 119.8-49.446l92.802 61.295 103.863-103.424-60.465-94.696c20.83-33.962 37.429-73.315 47.685-115.158zM512 716.19c-148.118 0-268.19-120.073-268.19-268.19s120.073-268.19 268.19-268.19c148.118 0 268.19 120.073 268.19 268.19s-120.073 268.19-268.19 268.19z" />
<glyph unicode="&#xe902;" glyph-name="sidebar_feedback_ic" d="M512 38.4c-0.155 0-0.339 0-0.522 0-54.241 0-106.697 7.647-156.347 21.922l-201.94-124.322v234.854c-92.942 79.865-151.833 197.094-153.188 328.111-0.002 254.648 229.169 461.035 511.998 461.035s512-206.285 512-460.8-229.53-460.8-512-460.8zM357.939 346.317h307.661v102.4h-307.814v-102.4zM768.563 653.261h-512.563v-102.4h512.41v102.4z" />
<glyph unicode="&#xe903;" glyph-name="sidebar_health_ic" d="M996.454 12.8h-968.858c-0.046 0-0.1 0-0.154 0-15.103 0-27.356 12.2-27.443 27.282v843.119h426.854l42.701-51.2h526.848c0.046 0 0.1 0 0.154 0 15.103 0 27.356-12.2 27.443-27.282v-764.629c-0.087-15.090-12.34-27.29-27.443-27.29-0.036 0-0.072 0-0.108 0zM922.112 678.4h-820.224v-102.4h820.224v102.4z" />
<glyph unicode="&#xe904;" glyph-name="sidebar_nurse_ic" d="M965.818-17.455h-63.185q-3.223-0.105-6.319 0h-826.496v39.913c0 1.571-0.093 3.165 0 4.864v2.932h0.303c0.163 1.711 0.209 3.328 0.524 5.167 9.647 56.134 35.037 166.609 210.63 182.179 72.879 7.052 121.553 91.148 149.271 151.133v36.934c-52.876-1.99-215.156 2.711-218.927 135.18 49.792 4.119 124.265 65.559 121.344 149.423s28.3 237.009 222.464 234.822c62.324-4.236 101.12-106.729 101.12-106.729s71.622-32.128 80.896-106.729-28.509-126.033 40.448-149.423c46.289-16.547 40.448-21.341 40.448-21.341s-38.039-129.373-224.884-133.911v-24.273c14.988-52.631 63.779-164.689 135.401-165.132 86.959-0.524 236.963-42.415 236.963-182.156 0.018-0.499 0.028-1.085 0.028-1.673 0-1.229-0.044-2.448-0.13-3.655l0.102 0.162v-47.686z" />
<glyph unicode="&#xe905;" glyph-name="call_homepage" d="M1019.643 458.894h-65.362c2.179 13.072 4.357 28.323 4.357 43.574 0 132.902-106.757 239.66-239.66 239.66-6.536 0-15.251 0-21.787-2.179v65.362c6.536 0 15.251 0 21.787 0 167.762 0 305.021-137.26 305.021-305.021 0-10.894-2.179-26.145-4.357-41.396zM823.557 105.94c0-4.357 0-8.715-2.179-13.072 0-8.715 2.179-17.43 2.179-26.145 0-6.536 0-13.072-2.179-19.609h-819.2c0 6.536-2.179 13.072-2.179 19.609 0 8.715 0 17.43 2.179 26.145 0 4.357-2.179 8.715-2.179 13.072 0 61.004 37.038 122.009 91.506 154.689 21.787 15.251 47.932 26.145 74.077 34.86l2.179 2.179c56.647 17.43 148.153 45.753 185.191 119.83-50.111 17.43-69.719 58.826-82.791 111.115-21.787 2.179-41.396 10.894-45.753 26.145l-17.43 47.932c-6.536 19.609 8.715 39.217 37.038 45.753 2.179 0 4.357 0 6.536 0-15.251 122.009 32.681 202.621 161.226 202.621s176.477-80.613 161.226-202.621c2.179 0 4.357 0 6.536 0 28.323-4.357 45.753-26.145 37.038-45.753l-17.43-47.932c-6.536-15.251-23.966-26.145-45.753-26.145-13.072-54.468-32.681-95.864-82.791-113.294 32.681-56.647 111.115-98.043 183.013-117.651v0c28.323-8.715 56.647-21.787 80.613-37.038 52.289-32.681 89.328-93.685 89.328-154.689zM827.915 502.468c0 61.004-47.932 108.936-108.936 108.936-6.536 0-15.251 0-21.787-2.179v65.362c10.894 2.179 21.787 2.179 32.681 2.179 89.328 0 163.404-74.077 163.404-163.404 0-19.609-4.357-37.038-8.715-54.468h-65.362c4.357 15.251 8.715 28.323 8.715 43.574z" />
<glyph unicode="&#xe906;" glyph-name="medical_data" d="M967.111-7.111h-910.222c-31.289 0-56.889 25.6-56.889 56.889v654.222c0 31.289 25.6 56.889 56.889 56.889h910.222c31.289 0 56.889-25.6 56.889-56.889v-654.222c0-31.289-25.6-56.889-56.889-56.889zM711.111 448h-142.222v142.222h-113.778v-142.222h-142.222v-113.778h142.222v-142.222h113.778v142.222h142.222v113.778zM256 846.222c0 31.289 25.6 56.889 56.889 56.889h369.778c31.289 0 56.889-25.6 56.889-56.889v-28.444h-483.556v28.444z" />
<glyph unicode="&#xe907;" glyph-name="align-left" d="M0 338.286v219.429h1024v-219.429h-1024zM0 923.429h438.857v-219.429h-438.857v219.429zM731.429-27.429h-731.429v219.429h731.429v-219.429z" />
<glyph unicode="&#xe908;" glyph-name="angle-double-left" d="M1024 183.467l-119.467-119.467-273.067 264.533-119.467 119.467 119.467 119.467 273.067 264.533 119.467-119.467-273.067-264.533 273.067-264.533zM512 183.467l-119.467-119.467-273.067 264.533-119.467 119.467 119.467 119.467 273.067 264.533 119.467-119.467-273.067-264.533 273.067-264.533z" />
<glyph unicode="&#xe909;" glyph-name="angle-double-right" d="M904.533 328.533v0l-273.067-264.533-119.467 119.467 273.067 264.533-273.067 264.533 119.467 119.467 273.067-264.533 119.467-119.467-119.467-119.467zM512 448l-119.467-119.467-273.067-264.533-119.467 119.467 273.067 264.533-273.067 264.533 119.467 119.467 273.067-264.533 119.467-119.467z" />
<glyph unicode="&#xe90a;" glyph-name="archive" d="M910.222-64h-796.444c-34.133 0-56.889 22.756-56.889 56.889v853.333c0 34.133 22.756 56.889 56.889 56.889h170.667v-56.889c0-34.133 22.756-56.889 56.889-56.889h341.333c34.133 0 56.889 22.756 56.889 56.889v56.889h170.667c34.133 0 56.889-22.756 56.889-56.889v-853.333c0-34.133-22.756-56.889-56.889-56.889zM796.444 561.778h-568.889v-113.778h568.889v113.778zM796.444 334.222h-568.889v-113.778h568.889v113.778zM625.778 846.222h-227.556c-34.133 0-56.889 22.756-56.889 56.889s22.756 56.889 56.889 56.889h227.556c34.133 0 56.889-22.756 56.889-56.889s-22.756-56.889-56.889-56.889z" />
<glyph unicode="&#xe90b;" glyph-name="arrow-down-long" d="M0-64v170.667h1024v-170.667h-1024zM512 277.333l-256 256h170.667v426.667h170.667v-426.667h170.667l-256-256z" />
<glyph unicode="&#xe90c;" glyph-name="arrow-down" d="M1024 700.587l-512-593.92-512 593.92 75.093 88.747 436.907-307.2 436.907 307.2 75.093-88.747z" />
<glyph unicode="&#xe90d;" glyph-name="arrow-right-long" d="M622.933 21.333l-110.933 119.467 204.8 221.867h-716.8v170.667h716.8l-204.8 221.867 110.933 119.467 401.067-426.667-401.067-426.667z" />
<glyph unicode="&#xe90e;" glyph-name="arrow-up-long" d="M0-64v170.667h1024v-170.667h-1024zM597.333 277.333h-170.667v426.667h-170.667l256 256 256-256h-170.667v-426.667z" />
<glyph unicode="&#xe90f;" glyph-name="arrow-up" d="M948.907 106.667l-436.907 307.2-436.907-307.2-75.093 88.747 512 593.92 512-593.92-75.093-88.747z" />
<glyph unicode="&#xe910;" glyph-name="bell" d="M708.923 172.308h-590.769l118.154 157.538v196.923c0 137.846 102.4 252.062 236.308 271.754v82.708h78.769v-82.708c133.908-19.692 236.308-133.908 236.308-271.754v-196.923l118.154-157.538h-196.923zM512 14.769c-74.831 0-133.908 51.2-153.6 118.154h303.262c-15.754-66.954-74.831-118.154-149.662-118.154z" />
<glyph unicode="&#xe911;" glyph-name="check" d="M1024 729.6l-646.4-697.6-377.6 428.8 134.4 134.4 230.4-198.4 518.4 467.2 140.8-134.4z" />
<glyph unicode="&#xe912;" glyph-name="chevron-left" d="M819.2 79.36l-153.6-143.36-460.8 512 460.8 512 153.6-143.36-327.68-368.64 327.68-368.64z" />
<glyph unicode="&#xe913;" glyph-name="chevron-right" d="M358.4-64l-153.6 143.36 327.68 368.64-327.68 368.64 153.6 143.36 460.8-512-460.8-512z" />
<glyph unicode="&#xe914;" glyph-name="close" d="M990.242 768.703l-315.077-315.077 315.077-315.077c45.011-45.011 45.011-112.527 0-157.538s-112.527-45.011-157.538 0l-315.077 315.077-315.077-315.077c-45.011-45.011-112.527-45.011-157.538 0s-45.011 112.527 0 157.538l315.077 315.077-315.077 315.077c-45.011 45.011-45.011 112.527 0 157.538s112.527 45.011 157.538 0l315.077-315.077 315.077 315.077c45.011 45.011 112.527 45.011 157.538 0 33.758-45.011 33.758-123.78 0-157.538z" />
<glyph unicode="&#xe915;" glyph-name="exclamation" d="M646.737 816.281l-35.93-503.018c0-3.593 0-5.389 0-8.982 0-53.895-44.912-98.807-98.807-98.807s-98.807 44.912-98.807 98.807c0 3.593 0 5.389 0 8.982v0l-35.93 503.018c0 3.593 0 5.389 0 8.982 0 73.656 61.081 134.737 134.737 134.737s134.737-61.081 134.737-134.737c0-3.593 0-5.389 0-8.982v0zM512 133.614c53.895 0 98.807-44.912 98.807-98.807s-44.912-98.807-98.807-98.807-98.807 44.912-98.807 98.807 44.912 98.807 98.807 98.807z" />
<glyph unicode="&#xe916;" glyph-name="file-round" d="M512 960c-282.88 0-512-229.12-512-512s229.12-512 512-512 512 229.12 512 512c0 282.88-229.12 512-512 512zM704 268.8v-38.4c0-7.68-5.12-12.8-12.8-12.8h-12.8c0 0 0 0 0 0h-332.8c0 0 0 0 0 0h-12.8c-7.68 0-12.8 5.12-12.8 12.8v435.2c0 7.68 5.12 12.8 12.8 12.8h217.6v-153.6h153.6v-256zM576 550.4v128l128-128h-128z" />
<glyph unicode="&#xe917;" glyph-name="file-text" d="M839.68-64h-771.413v1024h614.4v-273.067h273.067v-750.933h-116.053zM614.4 550.4h-409.6v-136.533h409.6v136.533zM819.2 345.6h-614.4v-136.533h614.4v136.533zM750.933 960l204.8-204.8h-204.8v204.8z" />
<glyph unicode="&#xe918;" glyph-name="file" d="M889.263-64h-754.526c-32.337 0-53.895 21.558-53.895 53.895v916.211c0 32.337 21.558 53.895 53.895 53.895h377.263v-431.158h431.158v-538.947c0-32.337-21.558-53.895-53.895-53.895zM619.789 960l323.368-323.368h-323.368v323.368z" />
<glyph unicode="&#xe919;" glyph-name="folder-round" d="M320 576h384v-38.4h-384v38.4zM512 960c-282.88 0-512-229.12-512-512s229.12-512 512-512 512 229.12 512 512c0 282.88-229.12 512-512 512zM742.4 256c0-7.68-5.12-12.8-12.8-12.8h-435.2c-7.68 0-12.8 5.12-12.8 12.8v384h166.4l25.6-25.6h256c7.68 0 12.8-5.12 12.8-12.8v-345.6z" />
<glyph unicode="&#xe91a;" glyph-name="gender-female" d="M605.091 541.091c0-51.413-41.678-93.091-93.091-93.091s-93.091 41.678-93.091 93.091c0 51.413 41.678 93.091 93.091 93.091s93.091-41.678 93.091-93.091zM512 960c-283.927 0-512-228.073-512-512s228.073-512 512-512 512 228.073 512 512c0 283.927-228.073 512-512 512zM698.182 308.364v-93.091h-139.636v-93.091h-93.091v93.091h-139.636v93.091h139.636v51.2c-79.127 18.618-139.636 93.091-139.636 181.527 0 102.4 83.782 186.182 186.182 186.182s186.182-83.782 186.182-186.182c0-88.436-60.509-158.255-139.636-181.527v-51.2h139.636z" />
<glyph unicode="&#xe91b;" glyph-name="gender-male" d="M558.545 378.182c0-64.266-52.098-116.364-116.364-116.364s-116.364 52.098-116.364 116.364c0 64.266 52.098 116.364 116.364 116.364s116.364-52.098 116.364-116.364zM512 960c-283.927 0-512-228.073-512-512s228.073-512 512-512 512 228.073 512 512c0 283.927-228.073 512-512 512zM791.273 657.455v-209.455h-93.091v116.364l-79.127-79.127c46.545-79.127 37.236-186.182-32.582-256-83.782-83.782-214.109-83.782-297.891 0s-83.782 214.109 0 297.891c69.818 69.818 176.873 79.127 256 27.927l79.127 79.127h-116.364v93.091h279.273v-69.818h4.655z" />
<glyph unicode="&#xe91c;" glyph-name="heart" d="M829.44 872.96c-184.32 46.080-317.44-117.76-317.44-117.76s-128 158.72-312.32 112.64c-184.32-46.080-230.4-230.4-179.2-373.76 56.32-143.36 491.52-486.4 491.52-486.4s435.2 343.040 491.52 486.4c51.2 148.48 10.24 337.92-174.080 378.88z" />
<glyph unicode="&#xe91d;" glyph-name="map-marker" d="M512-64c0 0-409.6 389.12-409.6 614.4s184.32 409.6 409.6 409.6 409.6-184.32 409.6-409.6c0-225.28-409.6-614.4-409.6-614.4zM512 704c-87.040 0-153.6-66.56-153.6-153.6s66.56-153.6 153.6-153.6 153.6 66.56 153.6 153.6-66.56 153.6-153.6 153.6z" />
<glyph unicode="&#xe91e;" glyph-name="pencil-line" d="M29.257 228.571v0l-29.257-292.571 73.143 7.314v-7.314h950.857l-73.143 146.286h-541.257l409.6 409.6-263.314 263.314zM665.6 864.914l263.314-263.314 51.2 51.2c58.514 58.514 58.514 153.6 0 212.114l-51.2 51.2c-58.514 58.514-153.6 58.514-212.114 0z" />
<glyph unicode="&#xe91f;" glyph-name="pencil" d="M689.493 871.253l245.76-245.76 47.787 47.787c54.613 54.613 54.613 143.36 0 197.973l-47.787 47.787c-54.613 54.613-143.36 54.613-197.973 0zM27.307 209.067v0l-27.307-273.067 273.067 27.307 559.787 559.787-245.76 245.76z" />
<glyph unicode="&#xe920;" glyph-name="plus-rounded-corner" d="M938.667 362.667h-341.333v-341.333c0-51.2-34.133-85.333-85.333-85.333s-85.333 34.133-85.333 85.333v341.333h-341.333c-51.2 0-85.333 34.133-85.333 85.333s34.133 85.333 85.333 85.333h341.333v341.333c0 51.2 34.133 85.333 85.333 85.333s85.333-34.133 85.333-85.333v-341.333h341.333c51.2 0 85.333-34.133 85.333-85.333s-34.133-85.333-85.333-85.333z" />
<glyph unicode="&#xe921;" glyph-name="plus" d="M1024 329.846h-393.846v-393.846h-236.308v393.846h-393.846v236.308h393.846v393.846h236.308v-393.846h393.846v-236.308z" />
<glyph unicode="&#xe922;" glyph-name="rmb-round" d="M512-64c-281.6 0-512 230.4-512 512s230.4 512 512 512 512-230.4 512-512c0-281.6-230.4-512-512-512zM614.4 704l-102.4-204.8-102.4 204.8h-102.4l102.4-204.8h-102.4v-102.4h153.6v-51.2h-153.6v-102.4h153.6v-102.4h102.4v102.4h153.6v102.4h-153.6v51.2h153.6v102.4h-102.4l102.4 204.8h-102.4z" />
<glyph unicode="&#xe923;" glyph-name="search" d="M1024 28.49l-92.49-92.49-310.503 310.503c-66.065-46.245-145.342-72.671-231.226-72.671-218.013 0-396.387 178.374-396.387 396.387s178.374 396.387 396.387 396.387c218.013 0 396.387-178.374 396.387-396.387 0-85.884-26.426-165.161-72.671-231.226l310.503-310.503zM396.387 827.871c-145.342 0-264.258-118.916-264.258-264.258s118.916-264.258 264.258-264.258 264.258 118.916 264.258 264.258c0 151.948-118.916 264.258-264.258 264.258z" />
<glyph unicode="&#xe924;" glyph-name="sort-desc" d="M512 192l512 512h-1024l512-512z" />
<glyph unicode="&#xe925;" glyph-name="template" d="M853.333 140.8v682.667h-614.4l68.267 136.533h682.667v-750.933l-136.533-68.267zM716.8-64h-682.667v750.933h682.667v-750.933z" />
<glyph unicode="&#xe926;" glyph-name="trash" d="M933.647 779.294h-843.294v120.471h240.941v60.235h361.412v-60.235h240.941v-120.471zM873.412 478.118v-421.647c0-66.259-54.212-120.471-120.471-120.471h-481.882c-66.259 0-120.471 54.212-120.471 120.471v662.588h722.824v-240.941z" />
<glyph unicode="&#xe927;" glyph-name="user-elderly" d="M1024-64h-1018.88c0 10.24 0 71.68 0 76.8 0 76.8 46.080 153.6 112.64 199.68 25.6 20.48 61.44 30.72 92.16 46.080 0 0 0 0 5.12 5.12 71.68 25.6 184.32 56.32 230.4 148.48-61.44 20.48-87.040 71.68-102.4 143.36-25.6 0-51.2 15.36-56.32 35.84l-20.48 61.44c-10.24 25.6 10.24 51.2 46.080 56.32 0 0 5.12 0 5.12 0-20.48 153.6 40.96 256 199.68 256s220.16-102.4 199.68-256c0 0 5.12 0 5.12 0 35.84-5.12 56.32-30.72 46.080-56.32l-20.48-61.44c-5.12-20.48-30.72-30.72-56.32-35.84-15.36-71.68-40.96-122.88-102.4-143.36 40.96-71.68 138.24-122.88 230.4-148.48 0 0 0 0 0 0 35.84-10.24 71.68-25.6 97.28-46.080 66.56-40.96 112.64-117.76 112.64-199.68-5.12-10.24-5.12-71.68-5.12-81.92z" />
<glyph unicode="&#xe928;" glyph-name="user-round" d="M512 960c-282.88 0-512-229.12-512-512s229.12-512 512-512 512 229.12 512 512c0 282.88-229.12 512-512 512zM768 245.76c0-5.12 0-10.24-1.28-15.36h-471.040c-1.28 5.12-1.28 10.24-1.28 15.36 0 3.84 0 7.68 0 11.52s0 6.4 0 10.24c0 19.2 6.4 38.4 17.92 53.76 23.040 39.68 65.28 60.16 119.040 69.12 0 0 1.28 1.28 1.28 1.28 20.48 3.84 35.84 8.96 44.8 14.080l8.96 38.4c-21.76 11.52-32 33.28-38.4 61.44-8.96 2.56-15.36 7.68-17.92 15.36l-8.96 29.44c-3.84 10.24 2.56 21.76 14.080 26.88-11.52 76.8 19.2 126.72 97.28 126.72s108.8-49.92 97.28-126.72c11.52-5.12 16.64-15.36 14.080-26.88l-8.96-29.44c-2.56-7.68-8.96-14.080-17.92-15.36-6.4-26.88-16.64-48.64-38.4-61.44l8.96-38.4c8.96-6.4 26.88-11.52 47.36-15.36 1.28 0 1.28 0 1.28-1.28 52.48-10.24 93.44-29.44 116.48-69.12 11.52-16.64 17.92-34.56 17.92-53.76 0-3.84 0-6.4 0-10.24-2.56-2.56-2.56-6.4-2.56-10.24z" />
<glyph unicode="&#xe929;" glyph-name="users" d="M1024 313.263c0 0 0 0 0 0 0-10.779 0-16.168-5.389-26.947h-258.695c-37.726 5.389-183.242 75.453-215.579 118.568 37.726 16.168 59.284 48.505 70.063 86.232 16.168 0 32.337-5.389 43.116 5.389 16.168 10.779 16.168 37.726 21.558 70.063 0 16.168 21.558 53.895 21.558 53.895 5.389 16.168-10.779 37.726-32.337 37.726-5.389 0-10.779 0-21.558 0 0 59.284-16.168 102.4-48.505 129.347 10.779 53.895 53.895 86.232 129.347 86.232 107.789 0 150.905-64.674 129.347-161.684 0 0 0 0 0 0 10.779 0 16.168 5.389 26.947 0 26.947-5.389 37.726-21.558 32.337-37.726l-16.168-43.116c-5.389-16.168-32.337-26.947-59.284-21.558-5.389 0-10.779 0-10.779 5.389-10.779-21.558-26.947-37.726-48.505-48.505l16.168-64.674c123.958-10.779 220.968-48.505 226.358-177.853 0-5.389 0-5.389 0-10.779 0 0 0 0 0 0s0 0 0 0zM576.674 528.842c-5.389-16.168-26.947-26.947-48.505-21.558-10.779-70.063-26.947-129.347-86.232-150.905 32.337-43.116 150.905-86.232 150.905-91.621 64.674-37.726 123.958-59.284 145.516-123.958 10.779-21.558 16.168-43.116 16.168-70.063 0-5.389 0-21.558 0-26.947 0-10.779 0-16.168 0-26.947h-749.137c0 10.779 0 16.168 0 26.947 0 5.389 0 21.558 0 26.947 0 21.558 5.389 48.505 16.168 70.063 26.947 59.284 75.453 97.011 140.126 118.568 0 0 0 0 0 0 43.116 16.168 113.179 37.726 145.516 91.621-48.505 26.947-64.674 80.842-75.453 145.516-21.558 0-48.505 5.389-53.895 21.558l-16.168 43.116c-5.389 16.168 10.779 37.726 32.337 37.726 5.389 0 16.168 0 21.558 0 0 97.011 48.505 161.684 161.684 161.684s161.684-64.674 161.684-161.684c5.389 0 10.779 0 21.558 0 26.947-5.389 37.726-21.558 32.337-37.726l-16.168-32.337z" />
<glyph unicode="&#xe92a;" glyph-name="home" d="M845.913 403.478v-356.174c0-26.713-17.809-44.522-44.522-44.522h-178.087v155.826c0 62.33-48.974 111.304-111.304 111.304s-111.304-48.974-111.304-111.304v-155.826h-178.087c-26.713 0-44.522 17.809-44.522 44.522v356.174h-178.087l512 489.739 512-489.739h-178.087z" />
<glyph unicode="&#xe92b;" glyph-name="nursing_home_setting" d="M700.632-64v485.053c0 59.284 48.505 107.789 107.789 107.789h107.789c59.284 0 107.789-48.505 107.789-107.789v-485.053h-323.368zM0 852.211c0 59.284 48.505 107.789 107.789 107.789h431.158c59.284 0 107.789-48.505 107.789-107.789v-916.211h-646.737v916.211zM377.263 97.684h161.684v161.684h-161.684v-161.684zM377.263 367.158h161.684v161.684h-161.684v-161.684zM377.263 636.632h161.684v161.684h-161.684v-161.684zM107.789 97.684h161.684v161.684h-161.684v-161.684zM107.789 367.158h161.684v161.684h-161.684v-161.684zM107.789 636.632h161.684v161.684h-161.684v-161.684z" />
<glyph unicode="&#xe92c;" glyph-name="send" d="M731.429 9.143l-219.429 146.286-219.429-146.286v292.571l-292.571 182.857 1024 402.286-292.571-877.714zM512 301.714l365.714 438.857-446.171-373.029 80.457-65.829z" />
<glyph unicode="&#xe92d;" glyph-name="angle-right" d="M669.143 411.429q0-7.429-5.714-13.143l-266.286-266.286q-5.714-5.714-13.143-5.714t-13.143 5.714l-28.571 28.571q-5.714 5.714-5.714 13.143t5.714 13.143l224.571 224.571-224.571 224.571q-5.714 5.714-5.714 13.143t5.714 13.143l28.571 28.571q5.714 5.714 13.143 5.714t13.143-5.714l266.286-266.286q5.714-5.714 5.714-13.143z" />
<glyph unicode="&#xe92e;" glyph-name="angle-down" d="M797.143 539.429q0-7.429-5.714-13.143l-266.286-266.286q-5.714-5.714-13.143-5.714t-13.143 5.714l-266.286 266.286q-5.714 5.714-5.714 13.143t5.714 13.143l28.571 28.571q5.714 5.714 13.143 5.714t13.143-5.714l224.571-224.571 224.571 224.571q5.714 5.714 13.143 5.714t13.143-5.714l28.571-28.571q5.714-5.714 5.714-13.143z" />
<glyph unicode="&#xe92f;" glyph-name="delete" d="M512 768c-188.544 0-341.333-152.832-341.333-341.333s152.789-341.333 341.333-341.333 341.333 152.832 341.333 341.333-152.789 341.333-341.333 341.333zM670.165 328.832c16.683-16.683 16.683-43.648 0-60.331-8.32-8.32-19.243-12.501-30.165-12.501s-21.845 4.181-30.165 12.501l-97.835 97.835-97.835-97.835c-8.32-8.32-19.243-12.501-30.165-12.501s-21.845 4.181-30.165 12.501c-16.683 16.683-16.683 43.648 0 60.331l97.835 97.835-97.835 97.835c-16.683 16.683-16.683 43.648 0 60.331s43.648 16.683 60.331 0l97.835-97.835 97.835 97.835c16.683 16.683 43.648 16.683 60.331 0s16.683-43.648 0-60.331l-97.835-97.835 97.835-97.835z" />
<glyph unicode="&#xe930;" glyph-name="card_active_ic" d="M512-85.333c-281.6 0-512 230.4-512 512s230.4 512 512 512 512-230.4 512-512c0-281.6-230.4-512-512-512zM486.4 488.107l-110.080 92.16-23.040-138.24-125.44-71.68 130.56-64 33.28-135.68 102.4 99.84 145.92-12.8-66.56 125.44 56.32 128-143.36-23.040zM788.48 646.827l-71.68-10.24-53.76 46.080-10.24-69.12-61.44-35.84 64-30.72 15.36-69.12 51.2 48.64 71.68-5.12-33.28 61.44 28.16 64z" />
<glyph unicode="&#xe931;" glyph-name="card_call_ic" d="M512-85.333c-281.6 0-512 230.4-512 512s230.4 512 512 512 512-230.4 512-512c0-281.6-230.4-512-512-512zM691.2 452.267h46.080c15.36 38.4-5.12 81.92-43.52 97.28-17.92 7.68-35.84 7.68-53.76 0v-46.080h25.6c0 0 0 0 0 0s0 0 0 0h25.6v-51.2zM604.16 357.547c-38.4 10.24-69.12 33.28-92.16 64 23.040 10.24 40.96 33.28 40.96 61.44 10.24 0 17.92 5.12 23.040 15.36l10.24 25.6c2.56 10.24-5.12 20.48-15.36 23.040 0 0-2.56 0-2.56 0s-2.56 0-2.56 0c7.68 66.56-17.92 110.080-79.36 110.080s-87.040-43.52-79.36-110.080c0 0-2.56 0-2.56 0-10.24 0-20.48-10.24-17.92-20.48 0 0 0-2.56 0-2.56l10.24-25.6c5.12-7.68 12.8-15.36 23.040-15.36 2.56-25.6 17.92-48.64 40.96-61.44-17.92-38.4-64-53.76-92.16-64 0 0 0 0-2.56 0-12.8-5.12-25.6-10.24-38.4-17.92-28.16-17.92-46.080-51.2-46.080-84.48 0-2.56 0-5.12 0-7.68 0-5.12 0-10.24 0-15.36 0-2.56 0-7.68 0-10.24h407.040c0 2.56 0 7.68 0 10.24 0 5.12 0 10.24 0 15.36 0 2.56 0 5.12 0 7.68 0 33.28-17.92 64-46.080 84.48-10.24 7.68-23.040 12.8-38.4 17.92 2.56 0 2.56 0 0 0zM665.6 657.067c-7.68 0-17.92 0-25.6-2.56v-51.2c69.12 15.36 135.68-30.72 151.040-99.84 2.56-17.92 2.56-33.28 0-51.2h51.2c15.36 97.28-51.2 186.88-148.48 202.24-10.24 2.56-17.92 2.56-28.16 2.56z" />
<glyph unicode="&#xe932;" glyph-name="card_care_ic" d="M512-85.333c-281.6 0-512 230.4-512 512s230.4 512 512 512 512-230.4 512-512c0-281.6-230.4-512-512-512zM716.8 631.467c0 0 0 0 0 0v-76.8l-102.4 102.4v-102.4h102.4v-51.2h-153.6v153.6h-204.8c-15.36 0-25.6-10.24-25.6-25.6v-409.6c0-15.36 10.24-25.6 25.6-25.6h332.8c15.36 0 25.6 10.24 25.6 25.6v409.6z" />
<glyph unicode="&#xe933;" glyph-name="card_members_ic" d="M512-85.333c-281.6 0-512 230.4-512 512s230.4 512 512 512 512-230.4 512-512c0-281.6-230.4-512-512-512zM332.8 170.667h384v51.2h-384v-51.2zM780.8 529.067c-20.48 0-38.4-17.92-38.4-38.4 0-5.12 0-7.68 2.56-10.24l-107.52-53.76-35.84 61.44-5.12 7.68-5.12 10.24-35.84 58.88c30.72 17.92 40.96 56.32 25.6 87.040-17.92 30.72-56.32 40.96-87.040 25.6-30.72-17.92-40.96-56.32-25.6-87.040 5.12-7.68 10.24-15.36 17.92-20.48l-46.080-76.8-2.56-5.12-35.84-61.44-97.28 51.2c2.56 5.12 2.56 7.68 2.56 12.8 0 20.48-17.92 38.4-38.4 38.4s-38.4-17.92-38.4-38.4 17.92-38.4 38.4-38.4c2.56 0 2.56 0 5.12 0l58.88-179.2h384l58.88 179.2c2.56 0 2.56 0 5.12 0 20.48 0 38.4 17.92 38.4 38.4s-17.92 38.4-38.4 38.4z" />
<glyph unicode="&#xe934;" glyph-name="card_order_ic" d="M512-85.333c-281.6 0-512 230.4-512 512s230.4 512 512 512 512-230.4 512-512c0-281.6-230.4-512-512-512zM550.4 682.667h-76.8c-20.48 0-38.4-17.92-38.4-38.4s17.92-38.4 38.4-38.4h76.8c20.48 0 38.4 17.92 38.4 38.4s-17.92 38.4-38.4 38.4zM716.8 580.267c0 15.36-10.24 25.6-25.6 25.6h-51.2c0-28.16-23.040-51.2-51.2-51.2h-153.6c-28.16 0-51.2 23.040-51.2 51.2h-51.2c-15.36 0-25.6-10.24-25.6-25.6v-409.6c0-15.36 10.24-25.6 25.6-25.6h358.4c15.36 0 25.6 10.24 25.6 25.6v409.6zM384 375.467h256v-51.2h-256v51.2zM384 477.867h256v-51.2h-256v51.2zM537.6 221.867h-153.6v51.2h153.6v-51.2z" />
<glyph unicode="&#xe935;" glyph-name="header_exit_ic" d="M512-21.333c-223.289 0-405.333 182.044-405.333 405.333 0 122.311 55.467 238.933 152.178 315.733l73.956-105.244c-116.622-99.556-130.844-274.489-32.711-391.111 99.556-116.622 274.489-130.844 391.111-32.711s130.844 274.489 32.711 391.111c-9.956 11.378-21.333 22.756-32.711 32.711l73.956 105.244c174.933-139.378 201.956-395.378 62.578-570.311-76.8-95.289-193.422-150.756-315.733-150.756zM512 490.667c-35.556 0-64 28.444-64 64v256c0 35.556 28.444 64 64 64s64-28.444 64-64v-256c0-35.556-28.444-64-64-64z" />
<glyph unicode="&#xe936;" glyph-name="header_message_ic" d="M512 452.267l-469.333 274.489v19.911c0 24.178 18.489 42.667 42.667 42.667h853.333c24.178 0 42.667-18.489 42.667-42.667v-19.911l-469.333-274.489zM482.133 375.467c17.067-15.644 44.089-15.644 61.156 0 0 0 0 1.422 1.422 1.422l438.044 256v-526.222c0-24.178-18.489-42.667-42.667-42.667h-853.333c-24.178 0-42.667 18.489-42.667 42.667v526.222l438.044-256c-1.422-1.422-1.422-1.422 0-1.422v0z" />
<glyph unicode="&#xe937;" glyph-name="header_setting_ic" d="M960 490.667v-128l-96.711-21.333c-8.533-36.978-24.178-71.111-42.667-102.4l54.044-83.911-91.022-91.022-82.489 52.622c-31.289-19.911-66.844-34.133-102.4-42.667l-21.333-96.711h-128l-21.333 96.711c-36.978 8.533-71.111 22.756-103.822 42.667l-82.489-52.622-91.022 91.022 52.622 82.489c-19.911 32.711-34.133 66.844-42.667 103.822l-96.711 21.333v128l96.711 21.333c8.533 36.978 24.178 71.111 42.667 102.4l-54.044 83.911 91.022 91.022 82.489-52.622c31.289 19.911 66.844 34.133 102.4 42.667l21.333 96.711h128l21.333-96.711c36.978-8.533 71.111-22.756 103.822-42.667l82.489 52.622 91.022-91.022-52.622-82.489c19.911-32.711 34.133-66.844 42.667-103.822l96.711-21.333zM512 661.334c-129.422 0-234.667-105.244-234.667-234.667s105.244-234.667 234.667-234.667 234.667 105.244 234.667 234.667-105.244 234.667-234.667 234.667z" />
<glyph unicode="&#xe938;" glyph-name="sidebar_add_ic" d="M938.667 341.334h-341.333v-341.333c0-48.356-36.978-85.333-85.333-85.333s-85.333 36.978-85.333 85.333v341.333h-341.333c-48.356 0-85.333 36.978-85.333 85.333s36.978 85.333 85.333 85.333h341.333v341.333c0 48.356 36.978 85.333 85.333 85.333s85.333-36.978 85.333-85.333v-341.333h341.333c48.356 0 85.333-36.978 85.333-85.333s-36.978-85.333-85.333-85.333z" />
<glyph unicode="&#xe939;" glyph-name="sidebar_archives_ic" d="M836.267 102.4h-648.533c-19.342 0-34.133 14.791-34.133 34.133v580.267c0 19.342 14.791 34.133 34.133 34.133h170.667c1.138 0 1.138 0 2.276 0 5.689 0 11.378-1.138 15.929-2.276l153.6-64.853h306.062c19.342 0 34.133-14.791 34.133-34.133v-512c0-19.342-14.791-35.271-34.133-35.271 0 0 0 0 0 0zM529.067 614.4c-1.138 0-1.138 0-2.276 0-5.689 0-11.378 1.138-15.929 2.276l-153.6 64.853h-135.396v-512h580.267v307.2h-409.6c-19.342 0-34.133 14.791-34.133 34.133s14.791 34.133 34.133 34.133h409.6v68.267l-273.067 1.138z" />
<glyph unicode="&#xe93a;" glyph-name="sidebar_call_ic" d="M512 119.467c-35.271 0-71.68 4.551-105.813 12.516l-201.387-114.916v224.142c-64.853 61.44-101.262 146.773-102.4 236.658 0 197.973 183.182 358.4 409.6 358.4s409.6-160.427 409.6-358.4-183.182-358.4-409.6-358.4zM512 768c-188.871 0-341.333-129.707-341.333-290.133 1.138-80.782 38.684-157.013 102.4-207.076v-117.191l93.298 62.578c46.649-18.204 95.573-28.444 145.636-28.444 188.871 0 341.333 129.707 341.333 290.133s-152.462 290.133-341.333 290.133zM682.667 392.534h-307.2c-19.342 0-34.133 14.791-34.133 34.133s14.791 34.133 34.133 34.133h307.2c19.342 0 34.133-14.791 34.133-34.133s-14.791-34.133-34.133-34.133zM477.867 529.067h-102.4c-19.342 0-34.133 14.791-34.133 34.133s14.791 34.133 34.133 34.133h102.4c19.342 0 34.133-14.791 34.133-34.133s-14.791-34.133-34.133-34.133z" />
<glyph unicode="&#xe93b;" glyph-name="sidebar_care_ic" d="M876.089 742.969l-340.196-374.329c-13.653-13.653-35.271-13.653-48.924 0s-13.653 35.271 0 48.924v0l340.196 374.329c13.653 13.653 35.271 13.653 48.924 0s13.653-35.271 0-48.924zM307.2 358.4c-19.342 0-34.133 14.791-34.133 34.133s14.791 34.133 34.133 34.133h68.267c19.342 0 34.133-14.791 34.133-34.133s-14.791-34.133-34.133-34.133h-68.267zM648.533 256c0-19.342-14.791-34.133-34.133-34.133h-307.2c-19.342 0-34.133 14.791-34.133 34.133s14.791 34.133 34.133 34.133h307.2c19.342 0 34.133-14.791 34.133-34.133zM546.133 733.867h-341.333v-614.4h512v341.333c0 19.342 14.791 34.133 34.133 34.133s34.133-14.791 34.133-34.133v-375.467c0-19.342-14.791-34.133-34.133-34.133h-580.267c-19.342 0-34.133 14.791-34.133 34.133v682.667c0 19.342 14.791 34.133 34.133 34.133h375.467c19.342 0 34.133-14.791 34.133-34.133s-14.791-34.133-34.133-34.133z" />
<glyph unicode="&#xe93c;" glyph-name="sidebar_community_ic" d="M887.467 85.334h-750.933c-19.342 0-34.133 14.791-34.133 34.133s14.791 34.133 34.133 34.133h68.267v580.267c0 19.342 14.791 34.133 34.133 34.133h409.6c19.342 0 34.133-14.791 34.133-34.133v-580.267h102.4v443.733h-34.133c-19.342 0-34.133 14.791-34.133 34.133s14.791 34.133 34.133 34.133h68.267c4.551 0 9.102-1.138 13.653-2.276 0 0 0 0 0 0 12.516-5.689 20.48-18.204 20.48-30.72v-477.867h34.133c19.342 0 34.133-14.791 34.133-34.133s-14.791-35.271-34.133-35.271zM614.4 699.734h-341.333v-546.133h204.8v238.933c0 19.342 14.791 34.133 34.133 34.133s34.133-14.791 34.133-34.133v-238.933h68.267v546.133z" />
<glyph unicode="&#xe93d;" glyph-name="sidebar_home_ic" d="M945.493 419.84c-13.653-13.653-34.133-13.653-47.787 0l-79.644 59.164v-376.604c0-19.342-14.791-34.133-34.133-34.133h-546.133c-19.342 0-34.133 14.791-34.133 34.133v376.604l-79.644-59.164c-14.791-12.516-35.271-10.24-47.787 3.413-11.378 12.516-11.378 31.858 0 44.373l410.738 308.338c13.653 13.653 35.271 13.653 47.787 0l410.738-308.338c13.653-13.653 13.653-35.271 0-47.787 0 0 0 0 0 0zM512 709.974l-243.484-182.044c2.276-4.551 3.413-10.24 4.551-14.791v-375.467h307.2v170.667c0 19.342 14.791 34.133 34.133 34.133s34.133-14.791 34.133-34.133v-170.667h102.4v375.467c0 5.689 1.138 10.24 4.551 14.791l-243.484 182.044z" />
<glyph unicode="&#xe93e;" glyph-name="sidebar_members_ic" d="M887.467 494.934c-3.413 0-5.689 0-9.102 1.138l-93.298-281.031c-1.138-6.827-4.551-12.516-10.24-17.067 0 0-1.138-1.138-1.138-1.138-2.276-2.276-4.551-3.413-7.964-5.689-1.138-1.138-3.413-1.138-4.551-2.276-2.276-1.138-4.551-1.138-6.827-1.138-1.138 0-2.276 0-3.413-1.138h-477.867c-1.138 0-2.276 0-3.413 1.138-2.276 0-4.551 1.138-6.827 1.138-1.138 0-3.413 1.138-4.551 2.276-3.413 1.138-5.689 3.413-7.964 5.689 0 0-1.138 1.138-1.138 1.138-4.551 4.551-7.964 10.24-10.24 17.067l-93.298 281.031c-37.547-5.689-71.68 20.48-77.369 58.027s20.48 71.68 58.027 77.369c37.547 5.689 71.68-20.48 77.369-58.027 1.138-7.964 1.138-17.067-1.138-25.031l157.013-79.644 116.053 207.076c-31.858 19.342-42.098 61.44-21.618 94.436 19.342 31.858 61.44 42.098 94.436 21.618 31.858-19.342 42.098-61.44 21.618-94.436-5.689-9.102-13.653-17.067-21.618-21.618l116.053-207.076 157.013 79.644c-7.964 36.409 14.791 72.818 51.2 81.92 36.409 7.964 72.818-14.791 81.92-51.2 7.964-36.409-14.791-72.818-51.2-81.92-5.689-2.276-11.378-2.276-15.929-2.276zM670.151 402.774v0c-2.276-1.138-3.413-3.413-5.689-4.551-1.138-1.138-2.276-1.138-4.551-1.138-1.138-1.138-3.413-1.138-4.551-1.138-2.276-1.138-5.689-1.138-7.964-1.138-1.138 0-2.276 0-2.276 0-11.378 0-22.756 5.689-29.582 15.929l-103.538 186.596-103.538-186.596c-6.827-10.24-18.204-15.929-29.582-15.929-1.138 0-2.276 0-2.276 0-2.276 0-5.689 1.138-7.964 1.138-1.138 0-3.413 1.138-4.551 1.138s-2.276 1.138-4.551 1.138c-2.276 1.138-3.413 2.276-4.551 4.551v0l-125.156 62.578 69.404-209.351h427.804l69.404 209.351-126.293-62.578zM273.067 119.467h477.867c19.342 0 34.133-14.791 34.133-34.133s-14.791-34.133-34.133-34.133h-477.867c-19.342 0-34.133 14.791-34.133 34.133s14.791 34.133 34.133 34.133z" />
<glyph unicode="&#xe93f;" glyph-name="sidebar_normal" d="M192 938.667l640-512-640-512v1024z" />
<glyph unicode="&#xe940;" glyph-name="sidebar_unfold" d="M1024 746.667l-512-640-512 640h1024z" />
<glyph unicode="&#xe941;" glyph-name="sidebar_consumption_ic" d="M512-85.333c-282.624 0-512 229.376-512 512s229.376 512 512 512 512-229.376 512-512-229.376-512-512-512v0zM512 856.747c-237.568 0-430.080-192.512-430.080-430.080s192.512-430.080 430.080-430.080 430.080 192.512 430.080 430.080v0c0 237.568-192.512 430.080-430.080 430.080zM589.824 447.147h65.536c24.576 0 40.96-16.384 40.96-40.96s-16.384-40.96-40.96-40.96h-81.92v-81.92h81.92c24.576 0 40.96-16.384 40.96-40.96s-16.384-40.96-40.96-40.96h-81.92v-40.96c0-24.576-16.384-40.96-40.96-40.96s-40.96 16.384-40.96 40.96v40.96h-81.92c-24.576 0-40.96 16.384-40.96 40.96s16.384 40.96 40.96 40.96h81.92v81.92h-81.92c-24.576 0-40.96 16.384-40.96 40.96s16.384 40.96 40.96 40.96h65.536l-139.264 131.072c-12.288 20.48-12.288 49.152 8.192 61.44 16.384 16.384 40.96 12.288 57.344-4.096 0 0 0 0 0 0l131.072-126.976 131.072 126.976c12.288 16.384 40.96 20.48 57.344 8.192 0 0 0 0 0 0 16.384-16.384 20.48-40.96 4.096-61.44l-135.168-135.168z" />
</font>
</defs>
</svg>
